<svg width="33" height="33" viewBox="0 0 33 33" fill="none" xmlns="http://www.w3.org/2000/svg">
<rect x="1.2287" y="1.68689" width="30.5" height="30.5" rx="4.25" fill="#FF5D73" stroke="#FF5D73" stroke-width="1.5"/>
<path d="M10.9787 16.4323L12.3773 6.41166C12.4277 6.07374 12.5663 5.8268 12.7931 5.67083C13.0451 5.51487 13.3223 5.43689 13.6247 5.43689C14.1792 5.43689 14.6202 5.60585 14.9478 5.94377C15.2674 6.24812 15.5391 6.6267 15.7628 7.07952C15.773 7.10025 15.7941 7.1135 15.8172 7.1135C16.1196 7.1135 16.3842 7.06151 16.611 6.95753C16.863 6.82756 17.1654 6.76258 17.5182 6.76258C18.3246 6.76258 19.005 7.02252 19.5595 7.54239C20.1391 8.06227 20.6053 8.69912 20.9581 9.45294C21.3109 10.1808 21.5629 10.9736 21.7141 11.8314C21.8905 12.6892 21.9787 13.443 21.9787 14.0929C21.9787 14.8727 21.7771 15.7435 21.3739 16.7052C20.9959 17.667 20.4793 18.5768 19.8241 19.4346C19.194 20.2924 18.4758 21.0072 17.6694 21.5791C16.863 22.151 16.044 22.4369 15.2124 22.4369C14.4564 22.4369 13.8011 22.2549 13.2467 21.891C12.7175 21.5271 12.2765 21.0722 11.9237 20.5263C11.5961 19.9545 11.3567 19.3176 11.2055 18.6158C11.0543 17.914 10.9787 17.2251 10.9787 16.5493V16.4323ZM14.154 16.5493C14.154 16.6271 14.1615 16.7046 14.1758 16.7811C14.2189 17.0132 14.262 17.2738 14.3052 17.563C14.3556 17.901 14.4312 18.2129 14.532 18.4988C14.6002 18.6748 14.6858 18.8269 14.7886 18.9552C14.8849 19.0754 14.9769 19.162 15.1263 19.1992C15.5303 19.2997 15.9361 18.9758 16.2318 18.683C16.4261 18.4906 16.6281 18.2863 16.8378 18.0699C17.2158 17.68 17.5686 17.2641 17.8962 16.8222C18.249 16.3803 18.5388 15.9124 18.7656 15.4185C18.9924 14.9247 19.1058 14.4048 19.1058 13.8589C19.2066 12.9751 19.1436 12.1693 18.9168 11.4415C18.69 10.6877 18.3624 10.1548 17.934 9.84285C17.5308 9.50493 17.0646 9.46594 16.5354 9.72588C16.0062 9.95983 15.477 10.6227 14.9478 11.7144C14.6454 12.3903 14.4312 13.1831 14.3052 14.0929C14.2044 14.9766 14.154 15.7955 14.154 16.5493Z" fill="#FAFCFE"/>
<path d="M15.5313 26.7266C18.5922 27.24 21.6272 27.0325 24.6379 26.5406M15.5313 26.7266L15.5727 26.4801L15.5313 26.7266ZM15.5313 26.7266C12.4009 26.2018 9.38788 25.2527 6.6023 23.5477L6.59999 23.5463L6.6 23.5462C6.59337 23.5421 6.5867 23.5379 6.57999 23.5337C6.38532 23.4117 6.16015 23.2706 5.96921 23.0869C5.96606 23.0839 5.96235 23.0806 5.95816 23.0767C5.92018 23.0421 5.84297 22.9718 5.79228 22.879C5.72485 22.7556 5.70765 22.6095 5.75726 22.4443L5.76183 22.4291L5.76828 22.4146C5.79645 22.3512 5.84205 22.2899 5.91119 22.246C5.9792 22.2028 6.05169 22.1882 6.11529 22.187C6.23072 22.1847 6.34969 22.2261 6.45196 22.27C6.59901 22.3305 6.75792 22.3996 6.91108 22.4833L6.91256 22.4841L6.91255 22.4842C9.27872 23.7978 11.777 24.6974 14.3866 25.274L14.3326 25.5181L14.3866 25.274C17.6699 25.9996 20.9751 25.8799 24.3043 25.4978C24.5469 25.4685 24.6595 25.3404 24.691 25.2241C24.7231 25.1057 24.6893 24.9316 24.4961 24.7762L24.4636 24.7501C24.1022 24.4595 23.7301 24.1602 23.4667 23.9442C23.4061 23.8964 23.3268 23.8163 23.2725 23.7163C23.2188 23.6173 23.1625 23.4409 23.2707 23.2671C23.2709 23.2667 23.2712 23.2664 23.2714 23.266L23.4832 23.3987C23.5611 23.2717 23.6554 23.3131 23.7862 23.3706C23.7936 23.3738 23.801 23.3771 23.8086 23.3804L24.6379 26.5406M24.6379 26.5406C24.5569 26.591 24.4761 26.6414 24.3954 26.6916C24.0374 26.9146 23.6825 27.1356 23.3283 27.3571L24.6379 26.5406ZM22.8687 27.6902C22.8683 27.6905 22.868 27.6908 22.8677 27.6911L23.0328 27.8788M22.8687 27.6902L24.0842 23.5422C24.2871 23.6702 24.49 23.7974 24.6927 23.9246C25.2232 24.2572 25.7528 24.5892 26.2778 24.9329M22.8687 27.6902C22.869 27.6899 22.8693 27.6897 22.8697 27.6894L23.0328 27.8788M22.8687 27.6902L23.4603 27.5694C23.3098 27.6626 23.2037 27.7285 23.0328 27.8788M23.0328 27.8788C22.9048 27.989 22.6381 28.229 22.7767 28.3522C22.9009 28.441 22.9996 28.4869 23.2759 28.3524C23.9626 28.0135 24.5989 27.5708 25.2309 27.1312C25.254 27.1151 25.2771 27.099 25.3002 27.0829C25.8782 26.6804 26.3132 26.364 26.8051 25.9752C27.0348 25.7937 27.0288 25.599 26.833 25.4102C26.8192 25.3968 26.8053 25.3834 26.7914 25.3699C26.6291 25.213 26.4638 25.0532 26.2778 24.9329M26.2778 24.9329L26.4148 24.7238C26.4146 24.7237 26.4145 24.7236 26.4143 24.7235C26.4141 24.7233 26.4138 24.7232 26.4136 24.723L26.2778 24.9329Z" fill="#FAFCFE" stroke="#FAFCFE" stroke-width="0.5"/>
</svg>
