<svg width="65" height="44" viewBox="0 0 65 44" fill="none" xmlns="http://www.w3.org/2000/svg">
<path d="M2.73071 11.0979L3.90389 2.87841C3.94616 2.60123 4.06242 2.39868 4.25267 2.27075C4.46405 2.14282 4.69657 2.07885 4.95023 2.07885C5.41527 2.07885 5.78519 2.21744 6.05999 2.49462C6.33479 2.75048 6.56731 3.07031 6.75755 3.4541H6.78926C7.04292 3.4541 7.26487 3.41145 7.45511 3.32617C7.6665 3.21956 7.92016 3.16625 8.21609 3.16625C8.89251 3.16625 9.46325 3.37947 9.92829 3.8059C10.4145 4.23233 10.8055 4.75471 11.1015 5.37304C11.3974 5.97004 11.6088 6.62035 11.7356 7.32396C11.8836 8.02758 11.9576 8.6459 11.9576 9.17894C11.9576 9.81859 11.7885 10.5329 11.4502 11.3218C11.1332 12.1107 10.6998 12.8569 10.1502 13.5605C9.62178 14.2641 9.01934 14.8505 8.34292 15.3196C7.6665 15.7886 6.9795 16.0232 6.28194 16.0232C5.64779 16.0232 5.0982 15.8739 4.63316 15.5754C4.18925 15.2769 3.81933 14.9038 3.5234 14.456C3.2486 13.987 3.04779 13.4646 2.92096 12.8889C2.79413 12.3132 2.73071 11.7482 2.73071 11.1938V11.0979ZM5.39413 11.2898C5.43641 11.503 5.47869 11.7482 5.52096 12.0254C5.56324 12.3026 5.62665 12.5584 5.71121 12.7929C5.79576 13.0062 5.91202 13.1767 6.05999 13.3047C6.22909 13.4113 6.46162 13.4113 6.75755 13.3047C7.03235 13.0488 7.32828 12.761 7.64536 12.4411C7.96243 12.1213 8.25837 11.7802 8.53316 11.4177C8.8291 11.0552 9.07219 10.6715 9.26243 10.2663C9.45268 9.86123 9.5478 9.4348 9.5478 8.98705C9.63235 8.26211 9.57951 7.60114 9.38926 7.00414C9.19902 6.38581 8.92422 5.94872 8.56487 5.69286C8.22666 5.41568 7.8356 5.3837 7.3917 5.59691C6.9478 5.78881 6.50389 6.33251 6.05999 7.22802C5.80633 7.78238 5.62665 8.43268 5.52096 9.17894C5.43641 9.90387 5.39413 10.5755 5.39413 11.1938V11.2898Z" fill="#352F6A"/>
<path d="M16.5868 14.7119C16.5868 14.6692 16.5868 14.6053 16.5868 14.52C16.608 14.4347 16.6291 14.3814 16.6503 14.3601L21.1844 5.69286C21.2478 5.54361 21.3218 5.34106 21.4064 5.0852C21.5121 4.80802 21.6072 4.5415 21.6917 4.28564C21.7763 4.00846 21.8503 3.76326 21.9137 3.55004C21.9771 3.33683 22.0088 3.2089 22.0088 3.16625V2.81445C21.3112 2.81445 20.5503 2.98502 19.7259 3.32617C18.9015 3.64599 18.0877 3.92317 17.2844 4.15771C16.4811 4.39225 15.7307 4.45621 15.0332 4.3496C14.3356 4.22167 13.7649 3.70995 13.321 2.81445C13.321 2.55859 13.4689 2.35603 13.7649 2.20678C14.0608 2.03621 14.3039 1.95092 14.4942 1.95092C14.5364 1.95092 14.6633 1.97225 14.8746 2.01489C15.1072 2.05753 15.2446 2.07885 15.2868 2.07885C15.8998 2.01489 16.5129 1.88696 17.1259 1.69507C17.7389 1.50317 18.3413 1.31128 18.9332 1.11938C19.5462 0.927489 20.1486 0.767577 20.7405 0.639647C21.3535 0.490396 21.956 0.437092 22.5478 0.479736C22.8015 0.479736 23.0763 0.490396 23.3722 0.511718C23.6893 0.511718 23.9747 0.554361 24.2283 0.639647C24.5031 0.703612 24.7356 0.831542 24.9259 1.02344C25.1161 1.21533 25.2113 1.48185 25.2113 1.823C25.2113 2.1215 25.1584 2.43066 25.0527 2.75048C24.9682 3.07031 24.8413 3.34749 24.6722 3.58203L20.9308 12.3452V12.633L23.2137 11.5456H23.3405L33.6771 8.28343H34.1844C34.3535 8.28343 34.5438 8.30476 34.7552 8.3474C34.9877 8.36872 35.1991 8.42202 35.3893 8.50731C35.5796 8.57128 35.7381 8.67788 35.8649 8.82713C35.9918 8.97639 36.0552 9.16828 36.0552 9.40282C36.0975 9.68 35.9283 9.9252 35.5479 10.1384C35.1674 10.3516 34.6283 10.5648 33.9308 10.7781C33.2332 10.97 32.3983 11.1832 31.4259 11.4177C30.4747 11.6309 29.4389 11.9081 28.3186 12.2492C27.1982 12.5691 26.0145 12.9635 24.7673 13.4326C23.5413 13.9017 22.3047 14.4774 21.0576 15.1596C20.9942 15.1383 20.8356 15.1703 20.582 15.2556C20.3283 15.3409 20.0429 15.4475 19.7259 15.5754C19.4299 15.682 19.134 15.7886 18.8381 15.8952C18.5633 15.9805 18.3625 16.0232 18.2356 16.0232C17.8974 16.0232 17.5381 15.9059 17.1576 15.6714C16.7771 15.4155 16.5868 15.0957 16.5868 14.7119Z" fill="#352F6A"/>
<path d="M43.5381 24.7863C43.4958 24.3386 43.4641 23.7949 43.443 23.1552C43.443 22.5156 43.443 21.844 43.443 21.1403C43.443 20.4367 43.443 19.7225 43.443 18.9975C43.4641 18.2726 43.4958 17.6116 43.5381 17.0146V15.8633C43.4324 15.714 43.3056 15.5648 43.1576 15.4155C43.0097 15.2449 42.7454 14.9251 42.3649 14.456C42.0056 13.9656 41.4877 13.2514 40.8113 12.3132C40.1349 11.3537 39.2259 10.0211 38.0844 8.31542C37.6405 7.84634 37.3552 7.46255 37.2283 7.16405C37.1015 6.84423 37.0592 6.58837 37.1015 6.39647C37.1438 6.20458 37.2495 6.06599 37.4186 5.9807C37.6088 5.89542 37.7885 5.85277 37.9576 5.85277C38.3804 5.85277 38.7609 5.94872 39.0991 6.14062C39.4373 6.33251 39.7438 6.57771 40.0186 6.87621C40.2934 7.17471 40.5365 7.5052 40.7479 7.86766C40.9804 8.20881 41.2023 8.53929 41.4137 8.85912C41.5406 9.05101 41.6991 9.29621 41.8893 9.59471C42.0796 9.89321 42.2698 10.1917 42.4601 10.4902C42.6503 10.7674 42.8088 11.0126 42.9357 11.2258C43.0836 11.439 43.1576 11.5456 43.1576 11.5456L43.5381 11.9614V8.60326C43.5381 7.53718 43.517 6.50308 43.4747 5.50097C43.4324 4.47753 43.4113 3.44344 43.4113 2.39868C43.4113 2.10018 43.517 1.85498 43.7284 1.66308C43.9397 1.47119 44.1934 1.3859 44.4893 1.40722C44.8487 1.44987 45.1129 1.51383 45.282 1.59912C45.4723 1.6844 45.6625 1.85498 45.8528 2.11084C46.0219 2.34537 46.0958 2.62255 46.0747 2.94238C46.0747 3.2622 46.0853 3.57136 46.1064 3.86987C46.191 5.89542 46.2544 7.92097 46.2967 9.94652C46.3601 11.9507 46.3918 13.9656 46.3918 15.9912C46.3706 16.1831 46.3601 16.5669 46.3601 17.1426C46.3601 17.7396 46.3601 18.4112 46.3601 19.1574C46.3812 19.9037 46.3918 20.6819 46.3918 21.4922C46.4129 22.3024 46.4235 23.038 46.4235 23.6989C46.4446 24.3812 46.4552 24.9356 46.4552 25.362C46.4763 25.8098 46.4975 26.023 46.5186 26.0017C46.5186 26.3215 46.4024 26.556 46.1698 26.7053C45.9585 26.8545 45.6942 26.9292 45.3771 26.9292C44.9544 26.9292 44.6373 26.8652 44.4259 26.7373C44.2357 26.6307 44.0877 26.4707 43.982 26.2575C43.8763 26.0656 43.8023 25.8418 43.7601 25.5859C43.7178 25.33 43.6438 25.0635 43.5381 24.7863Z" fill="#352F6A"/>
<path d="M49.2137 19.0935C49.1926 18.9442 49.2454 18.6457 49.3723 18.198C49.5202 17.7715 49.6999 17.2492 49.9113 16.6308C50.1438 16.0338 50.3869 15.3835 50.6406 14.6799C50.8942 13.9763 51.1373 13.3047 51.3698 12.665C51.6235 12.0041 51.8349 11.4177 52.004 10.906C52.1942 10.3729 52.3105 9.96784 52.3528 9.69066C52.3528 9.64802 52.3422 9.58405 52.3211 9.49876C52.3211 9.41348 52.3211 9.36017 52.3211 9.33885C51.9406 9.10431 51.5495 8.79515 51.1479 8.41136C50.7674 8.00625 50.3869 7.59048 50.0064 7.16405C49.6259 6.7163 49.256 6.26854 48.8967 5.82079C48.5373 5.37304 48.1991 4.97859 47.882 4.63744V4.50951C47.882 4.16837 47.9983 3.90185 48.2308 3.70995C48.4845 3.51806 48.7698 3.42211 49.0869 3.42211C49.5731 3.42211 50.017 3.60335 50.4186 3.96581C50.8414 4.30696 51.2113 4.69075 51.5284 5.11718C51.8666 5.52229 52.1625 5.90608 52.4162 6.26854C52.691 6.60969 52.9235 6.78026 53.1138 6.78026H53.2406C53.2617 6.67365 53.304 6.51374 53.3674 6.30053C53.452 6.06599 53.5682 5.71418 53.7162 5.24511C53.8642 4.77603 54.065 4.15771 54.3186 3.39013C54.5723 2.62255 54.8894 1.64176 55.2699 0.447753C55.3121 0.255859 55.4495 0.13859 55.682 0.0959471C55.9146 0.0319824 56.1154 0 56.2845 0C56.6016 0 56.8869 0.106608 57.1406 0.319824C57.4154 0.53304 57.5528 0.820881 57.5528 1.18335V1.37524L55.3333 9.05101L60.5016 13.5285L60.6284 13.9123V13.9763C60.6284 14.3388 60.491 14.6053 60.2162 14.7759C59.9625 14.9464 59.6877 15.0317 59.3918 15.0317C59.0747 15.0317 58.6837 14.8611 58.2186 14.52C57.7747 14.1789 57.3203 13.8057 56.8552 13.4006C56.3902 12.9955 55.9568 12.6224 55.5552 12.2812C55.1747 11.9401 54.8894 11.7695 54.6991 11.7695H54.5723C54.2764 12.0467 54.0333 12.4305 53.843 12.9209C53.6528 13.4113 53.4837 13.955 53.3357 14.552C53.1877 15.1277 53.0398 15.7247 52.8918 16.343C52.7438 16.9613 52.5642 17.5263 52.3528 18.0381C52.1625 18.5711 51.93 19.0295 51.6552 19.4133C51.3804 19.7971 51.0316 20.0423 50.6089 20.1489C50.3341 20.1489 50.0276 20.0529 49.6894 19.8611C49.3723 19.6692 49.2137 19.4133 49.2137 19.0935Z" fill="#352F6A"/>
<path d="M60.7218 37.4665C58.3113 38.8635 55.9929 40.1945 53.6811 41.5332C53.2189 41.7981 52.8931 41.9855 52.3685 42.413C51.9755 42.7264 51.1565 43.4089 51.582 43.7591C51.9635 44.0116 52.2666 44.1422 53.115 43.7597C55.3008 42.7607 57.3203 41.4447 59.331 40.1498C61.1058 39.0052 62.4417 38.1053 63.9521 36.9999C64.6574 36.4836 64.6389 35.9301 64.0379 35.393C63.4983 34.9113 62.9531 34.4073 62.333 34.036C60.1045 32.685 57.8497 31.3976 55.597 30.0813C55.3182 29.916 55.1106 29.7704 54.7508 29.6212C54.3129 29.4446 54.0041 29.2917 53.7516 29.6733C53.5079 30.0336 53.9261 30.485 54.1817 30.6703C56.2836 32.2665 60.6744 35.4868 60.869 35.7114C59.2905 35.94 57.8344 36.1847 56.3623 36.3483C46.105 37.4386 35.857 37.7884 25.6526 35.7001C17.575 34.0472 9.83252 31.4665 2.49498 27.6941C2.06023 27.4741 1.60121 27.2887 1.15561 27.1187C0.55512 26.8796 0.200389 26.8615 0.0552735 27.1636C-0.140465 27.7672 0.225608 28.0331 0.499255 28.2707C1.0388 28.7525 1.68782 29.1258 2.31568 29.4904C10.7648 34.2796 19.9174 36.9539 29.4605 38.4355C39.2549 39.9568 48.9851 39.2284 58.6873 37.6698C59.1959 37.5681 60.477 37.4344 60.7218 37.4665Z" fill="#8980F5"/>
</svg>
